<?xml version='1.0' encoding='UTF-8' standalone='no'?>
<!-- Created with Fritzing (http://www.fritzing.org/) -->
<svg xmlns:svg='http://www.w3.org/2000/svg' xmlns='http://www.w3.org/2000/svg' version='1.2' baseProfile='tiny' x='0in' y='0in' width='3.27059in' height='2.48745in' viewBox='0 0 235.482 179.096' >
<g partID='854373920'><g transform='translate(14.0312,19.8664)' ><g xmlns="http://www.w3.org/2000/svg" id="schematic">
<line stroke-linecap="round" y1="8.50619" y2="4.9062" x1="7.54999" x2="14.75" stroke="#000000" stroke-width="0.72" class="other" xmlns="http://www.w3.org/2000/svg"/>
<line stroke-linecap="round" y1="15.7062" y2="15.7062" x1="14.75" x2="16.55" stroke="#000000" stroke-width="0.36" class="other" xmlns="http://www.w3.org/2000/svg"/>
<line stroke-linecap="round" y1="1.3062" y2="1.3062" x1="14.75" x2="16.55" stroke="#000000" stroke-width="0.432" class="other" xmlns="http://www.w3.org/2000/svg"/>
<circle cx="14.75" fill="none" cy="1.3062" stroke="#000000" stroke-width="0.576" r="1.0182" class="other" xmlns="http://www.w3.org/2000/svg"/>
<circle cx="14.75" fill="none" cy="15.7062" stroke="#000000" stroke-width="0.576" r="1.0182" class="other" xmlns="http://www.w3.org/2000/svg"/>
<circle cx="7.54999" fill="none" cy="8.50619" stroke="#000000" stroke-width="0.576" r="1.0182" class="other" xmlns="http://www.w3.org/2000/svg"/>
<line stroke-linecap="round" y1="8.50619" y2="8.50619" x1="0.349999" x2="7.54999" stroke="#787878" stroke-width="0.699999" connectorname="P" class="pin" xmlns="http://www.w3.org/2000/svg" id="connector1pin"/>
<g fill="none" stroke="none" stroke-width="0" width="0.000283465" height="0.000283464" class="terminal" x="0.349999" y="8.50619" xmlns="http://www.w3.org/2000/svg" id="connector1terminal"/>
<text text-anchor="middle" fill="#8c8c8c" font-size="2.5" stroke="none" stroke-width="0" font-family="'Droid Sans'" class="text" x="3.94999" y="7.45618" xmlns="http://www.w3.org/2000/svg">2</text>
<line stroke-linecap="round" y1="15.7062" y2="15.7062" x1="21.95" x2="14.75" stroke="#787878" stroke-width="0.699999" connectorname="S" class="pin" xmlns="http://www.w3.org/2000/svg" id="connector2pin"/>
<g fill="none" stroke="none" stroke-width="0" width="0.000283465" height="0.000283464" class="terminal" x="21.95" y="15.7062" xmlns="http://www.w3.org/2000/svg" id="connector2terminal"/>
<text text-anchor="middle" fill="#8c8c8c" font-size="2.5" stroke="none" stroke-width="0" font-family="'Droid Sans'" class="text" x="18.35" y="14.6562" xmlns="http://www.w3.org/2000/svg">3</text>
<line stroke-linecap="round" y1="1.3062" y2="1.3062" x1="21.95" x2="14.75" stroke="#787878" stroke-width="0.699999" connectorname="O" class="pin" xmlns="http://www.w3.org/2000/svg" id="connector0pin"/>
<g fill="none" stroke="none" stroke-width="0" width="0.000283465" height="0.000283464" class="terminal" x="21.95" y="1.3062" xmlns="http://www.w3.org/2000/svg" id="connector0terminal"/>
<text text-anchor="middle" fill="#8c8c8c" font-size="2.5" stroke="none" stroke-width="0" font-family="'Droid Sans'" class="text" x="18.35" y="0.256206" xmlns="http://www.w3.org/2000/svg">1</text>
</g>
</g></g><g partID='854380850'><g transform='translate(139.482,49.7568)' ><g transform='matrix(-1,0,0,1,0,0)'  ><g id="schematic">
<g>
<path d="M13.5,14.966L9.9,14.966c-0.193,0,-0.35,-0.156,-0.35,-0.35s0.156,-0.35,0.35,-0.35L13.5,14.266c0.193,0,0.35,0.156,0.35,0.35S13.694,14.966,13.5,14.966z"/>
</g>
<g>
<path d="M9.9,14.966L6.3,14.966c-0.193,0,-0.35,-0.156,-0.35,-0.35s0.157,-0.35,0.35,-0.35l3.6,0c0.193,0,0.35,0.156,0.35,0.35S10.093,14.966,9.9,14.966z"/>
</g>
<g>
<polygon fill="#FFFFFF" points="9.9,14.616,6.3,7.416,9.9,7.416,13.5,7.416"/>
<path d="M9.9,15.398L5.734,7.066l8.333,0L9.9,15.398zM6.866,7.766L9.9,13.834l3.034,-6.068L6.866,7.766z"/>
</g>
<g>
<path d="M9.9,14.841c-0.124,0,-0.225,-0.101,-0.225,-0.225l0,-7.2c0,-0.124,0.101,-0.225,0.225,-0.225s0.225,0.101,0.225,0.225l0,7.2C10.124,14.74,10.024,14.841,9.9,14.841z"/>
</g>
<g>
<path d="M1.8,12.141c-0.058,0,-0.115,-0.021,-0.159,-0.065c-0.088,-0.088,-0.088,-0.23,0,-0.318l2.34,-2.341c0.088,-0.088,0.23,-0.088,0.318,0s0.088,0.23,0,0.318l-2.34,2.341C1.915,12.12,1.858,12.141,1.8,12.141z"/>
</g>
<g>
<path d="M2.16,15.381c-0.058,0,-0.115,-0.021,-0.159,-0.065c-0.088,-0.088,-0.088,-0.23,0,-0.318l2.34,-2.34c0.088,-0.088,0.23,-0.088,0.318,0s0.088,0.23,0,0.318l-2.34,2.34C2.276,15.359,2.218,15.381,2.16,15.381z"/>
</g>
<g id="connector0pin">
<path fill="#787878" d="M9.9,22.166c-0.193,0,-0.35,-0.156,-0.35,-0.35l0,-7.2c0,-0.193,0.156,-0.35,0.35,-0.35s0.35,0.156,0.35,0.35l0,7.2C10.249,22.01,10.093,22.166,9.9,22.166z"/>
</g>
<g id="connector0terminal">
<rect fill="none" width="0.001" height="0.001" x="9.9" y="21.816"/>
</g>
<g transform="matrix(1, 0, 0, 1, 3.429, 6.4262)">
<g>
<g transform="rotate(270)">
<g>
<g enable-background="new    ">
<path fill="#787878" d="M-11.647,5.54l-0.891,0L-12.538,5.388l0.342,-0.372c0.049,-0.053,0.093,-0.101,0.131,-0.145s0.071,-0.086,0.099,-0.128c0.026,-0.042,0.047,-0.084,0.062,-0.125c0.015,-0.043,0.021,-0.088,0.021,-0.138c0,-0.038,-0.005,-0.072,-0.017,-0.102s-0.027,-0.054,-0.047,-0.075c-0.021,-0.02,-0.045,-0.035,-0.073,-0.046s-0.06,-0.016,-0.094,-0.016c-0.062,0,-0.118,0.013,-0.167,0.038c-0.051,0.024,-0.098,0.057,-0.143,0.096l-0.1,-0.116c0.025,-0.023,0.055,-0.046,0.084,-0.065c0.029,-0.021,0.063,-0.039,0.097,-0.054s0.071,-0.026,0.109,-0.036c0.038,-0.008,0.079,-0.013,0.121,-0.013c0.063,0,0.119,0.009,0.169,0.026c0.051,0.018,0.094,0.043,0.129,0.076c0.035,0.032,0.063,0.072,0.082,0.119c0.019,0.048,0.028,0.101,0.028,0.16c0,0.056,-0.009,0.108,-0.026,0.158c-0.017,0.05,-0.041,0.1,-0.07,0.148c-0.031,0.048,-0.066,0.097,-0.109,0.146c-0.041,0.049,-0.087,0.1,-0.136,0.152L-12.32,5.37l0,0.008l0.673,0L-11.647,5.54z"/>
</g>
</g>
</g>
</g>
</g>
<g id="connector1pin">
<path fill="#787878" d="M9.9,7.766c-0.193,0,-0.35,-0.157,-0.35,-0.35l0,-7.2c0,-0.193,0.156,-0.35,0.35,-0.35s0.35,0.157,0.35,0.35l0,7.2C10.249,7.609,10.093,7.766,9.9,7.766z"/>
</g>
<g id="connector1terminal">
<polygon fill="none" points="9.9,0.216,9.901,0.216,9.901,0.216"/>
</g>
<g transform="matrix(1, 0, 0, 1, 3.429, 1.3462)">
<g>
<g transform="rotate(270)">
<g>
<g enable-background="new    ">
<path fill="#787878" d="M-2.616,5.54l-0.172,0L-2.788,4.648c0,-0.028,0,-0.058,0,-0.09s0.001,-0.063,0.002,-0.095c0.001,-0.032,0.002,-0.063,0.003,-0.092c0.001,-0.028,0.002,-0.054,0.002,-0.076c-0.011,0.012,-0.021,0.021,-0.029,0.03s-0.017,0.017,-0.026,0.024s-0.018,0.016,-0.028,0.025c-0.01,0.008,-0.021,0.019,-0.035,0.03l-0.145,0.118l-0.094,-0.12l0.374,-0.292l0.146,0L-2.618,5.54z"/>
</g>
</g>
</g>
</g>
</g>
<g>
<path d="M0.18,13.536l1.08,-2.521l1.44,1.438L0.18,13.536z"/>
</g>
<g>
<path d="M0.54,16.776l1.08,-2.521l1.438,1.438L0.54,16.776z"/>
</g>
</g>
</g></g></g><g partID='854380830'><g transform='translate(189.882,49.7568)' ><g transform='matrix(-1,0,0,1,0,0)'  ><g id="schematic">
<g>
<path d="M13.5,14.966L9.9,14.966c-0.193,0,-0.35,-0.156,-0.35,-0.35s0.156,-0.35,0.35,-0.35L13.5,14.266c0.193,0,0.35,0.156,0.35,0.35S13.694,14.966,13.5,14.966z"/>
</g>
<g>
<path d="M9.9,14.966L6.3,14.966c-0.193,0,-0.35,-0.156,-0.35,-0.35s0.157,-0.35,0.35,-0.35l3.6,0c0.193,0,0.35,0.156,0.35,0.35S10.093,14.966,9.9,14.966z"/>
</g>
<g>
<polygon fill="#FFFFFF" points="9.9,14.616,6.3,7.416,9.9,7.416,13.5,7.416"/>
<path d="M9.9,15.398L5.734,7.066l8.333,0L9.9,15.398zM6.866,7.766L9.9,13.834l3.034,-6.068L6.866,7.766z"/>
</g>
<g>
<path d="M9.9,14.841c-0.124,0,-0.225,-0.101,-0.225,-0.225l0,-7.2c0,-0.124,0.101,-0.225,0.225,-0.225s0.225,0.101,0.225,0.225l0,7.2C10.124,14.74,10.024,14.841,9.9,14.841z"/>
</g>
<g>
<path d="M1.8,12.141c-0.058,0,-0.115,-0.021,-0.159,-0.065c-0.088,-0.088,-0.088,-0.23,0,-0.318l2.34,-2.341c0.088,-0.088,0.23,-0.088,0.318,0s0.088,0.23,0,0.318l-2.34,2.341C1.915,12.12,1.858,12.141,1.8,12.141z"/>
</g>
<g>
<path d="M2.16,15.381c-0.058,0,-0.115,-0.021,-0.159,-0.065c-0.088,-0.088,-0.088,-0.23,0,-0.318l2.34,-2.34c0.088,-0.088,0.23,-0.088,0.318,0s0.088,0.23,0,0.318l-2.34,2.34C2.276,15.359,2.218,15.381,2.16,15.381z"/>
</g>
<g id="connector0pin">
<path fill="#787878" d="M9.9,22.166c-0.193,0,-0.35,-0.156,-0.35,-0.35l0,-7.2c0,-0.193,0.156,-0.35,0.35,-0.35s0.35,0.156,0.35,0.35l0,7.2C10.249,22.01,10.093,22.166,9.9,22.166z"/>
</g>
<g id="connector0terminal">
<rect fill="none" width="0.001" height="0.001" x="9.9" y="21.816"/>
</g>
<g transform="matrix(1, 0, 0, 1, 3.429, 6.4262)">
<g>
<g transform="rotate(270)">
<g>
<g enable-background="new    ">
<path fill="#787878" d="M-11.647,5.54l-0.891,0L-12.538,5.388l0.342,-0.372c0.049,-0.053,0.093,-0.101,0.131,-0.145s0.071,-0.086,0.099,-0.128c0.026,-0.042,0.047,-0.084,0.062,-0.125c0.015,-0.043,0.021,-0.088,0.021,-0.138c0,-0.038,-0.005,-0.072,-0.017,-0.102s-0.027,-0.054,-0.047,-0.075c-0.021,-0.02,-0.045,-0.035,-0.073,-0.046s-0.06,-0.016,-0.094,-0.016c-0.062,0,-0.118,0.013,-0.167,0.038c-0.051,0.024,-0.098,0.057,-0.143,0.096l-0.1,-0.116c0.025,-0.023,0.055,-0.046,0.084,-0.065c0.029,-0.021,0.063,-0.039,0.097,-0.054s0.071,-0.026,0.109,-0.036c0.038,-0.008,0.079,-0.013,0.121,-0.013c0.063,0,0.119,0.009,0.169,0.026c0.051,0.018,0.094,0.043,0.129,0.076c0.035,0.032,0.063,0.072,0.082,0.119c0.019,0.048,0.028,0.101,0.028,0.16c0,0.056,-0.009,0.108,-0.026,0.158c-0.017,0.05,-0.041,0.1,-0.07,0.148c-0.031,0.048,-0.066,0.097,-0.109,0.146c-0.041,0.049,-0.087,0.1,-0.136,0.152L-12.32,5.37l0,0.008l0.673,0L-11.647,5.54z"/>
</g>
</g>
</g>
</g>
</g>
<g id="connector1pin">
<path fill="#787878" d="M9.9,7.766c-0.193,0,-0.35,-0.157,-0.35,-0.35l0,-7.2c0,-0.193,0.156,-0.35,0.35,-0.35s0.35,0.157,0.35,0.35l0,7.2C10.249,7.609,10.093,7.766,9.9,7.766z"/>
</g>
<g id="connector1terminal">
<polygon fill="none" points="9.9,0.216,9.901,0.216,9.901,0.216"/>
</g>
<g transform="matrix(1, 0, 0, 1, 3.429, 1.3462)">
<g>
<g transform="rotate(270)">
<g>
<g enable-background="new    ">
<path fill="#787878" d="M-2.616,5.54l-0.172,0L-2.788,4.648c0,-0.028,0,-0.058,0,-0.09s0.001,-0.063,0.002,-0.095c0.001,-0.032,0.002,-0.063,0.003,-0.092c0.001,-0.028,0.002,-0.054,0.002,-0.076c-0.011,0.012,-0.021,0.021,-0.029,0.03s-0.017,0.017,-0.026,0.024s-0.018,0.016,-0.028,0.025c-0.01,0.008,-0.021,0.019,-0.035,0.03l-0.145,0.118l-0.094,-0.12l0.374,-0.292l0.146,0L-2.618,5.54z"/>
</g>
</g>
</g>
</g>
</g>
<g>
<path d="M0.18,13.536l1.08,-2.521l1.44,1.438L0.18,13.536z"/>
</g>
<g>
<path d="M0.54,16.776l1.08,-2.521l1.438,1.438L0.54,16.776z"/>
</g>
</g>
</g></g></g><g partID='854379120'><g transform='translate(53.0824,64.1568)' ><g transform='matrix(-1,0,0,1,0,0)'  ><g id="schematic">
<g>
<path d="M13.5,14.966L9.9,14.966c-0.193,0,-0.35,-0.156,-0.35,-0.35s0.156,-0.35,0.35,-0.35L13.5,14.266c0.193,0,0.35,0.156,0.35,0.35S13.694,14.966,13.5,14.966z"/>
</g>
<g>
<path d="M9.9,14.966L6.3,14.966c-0.193,0,-0.35,-0.156,-0.35,-0.35s0.157,-0.35,0.35,-0.35l3.6,0c0.193,0,0.35,0.156,0.35,0.35S10.093,14.966,9.9,14.966z"/>
</g>
<g>
<polygon fill="#FFFFFF" points="9.9,14.616,6.3,7.416,9.9,7.416,13.5,7.416"/>
<path d="M9.9,15.398L5.734,7.066l8.333,0L9.9,15.398zM6.866,7.766L9.9,13.834l3.034,-6.068L6.866,7.766z"/>
</g>
<g>
<path d="M9.9,14.841c-0.124,0,-0.225,-0.101,-0.225,-0.225l0,-7.2c0,-0.124,0.101,-0.225,0.225,-0.225s0.225,0.101,0.225,0.225l0,7.2C10.124,14.74,10.024,14.841,9.9,14.841z"/>
</g>
<g>
<path d="M1.8,12.141c-0.058,0,-0.115,-0.021,-0.159,-0.065c-0.088,-0.088,-0.088,-0.23,0,-0.318l2.34,-2.341c0.088,-0.088,0.23,-0.088,0.318,0s0.088,0.23,0,0.318l-2.34,2.341C1.915,12.12,1.858,12.141,1.8,12.141z"/>
</g>
<g>
<path d="M2.16,15.381c-0.058,0,-0.115,-0.021,-0.159,-0.065c-0.088,-0.088,-0.088,-0.23,0,-0.318l2.34,-2.34c0.088,-0.088,0.23,-0.088,0.318,0s0.088,0.23,0,0.318l-2.34,2.34C2.276,15.359,2.218,15.381,2.16,15.381z"/>
</g>
<g id="connector0pin">
<path fill="#787878" d="M9.9,22.166c-0.193,0,-0.35,-0.156,-0.35,-0.35l0,-7.2c0,-0.193,0.156,-0.35,0.35,-0.35s0.35,0.156,0.35,0.35l0,7.2C10.249,22.01,10.093,22.166,9.9,22.166z"/>
</g>
<g id="connector0terminal">
<rect fill="none" width="0.001" height="0.001" x="9.9" y="21.816"/>
</g>
<g transform="matrix(1, 0, 0, 1, 3.429, 6.4262)">
<g>
<g transform="rotate(270)">
<g>
<g enable-background="new    ">
<path fill="#787878" d="M-11.647,5.54l-0.891,0L-12.538,5.388l0.342,-0.372c0.049,-0.053,0.093,-0.101,0.131,-0.145s0.071,-0.086,0.099,-0.128c0.026,-0.042,0.047,-0.084,0.062,-0.125c0.015,-0.043,0.021,-0.088,0.021,-0.138c0,-0.038,-0.005,-0.072,-0.017,-0.102s-0.027,-0.054,-0.047,-0.075c-0.021,-0.02,-0.045,-0.035,-0.073,-0.046s-0.06,-0.016,-0.094,-0.016c-0.062,0,-0.118,0.013,-0.167,0.038c-0.051,0.024,-0.098,0.057,-0.143,0.096l-0.1,-0.116c0.025,-0.023,0.055,-0.046,0.084,-0.065c0.029,-0.021,0.063,-0.039,0.097,-0.054s0.071,-0.026,0.109,-0.036c0.038,-0.008,0.079,-0.013,0.121,-0.013c0.063,0,0.119,0.009,0.169,0.026c0.051,0.018,0.094,0.043,0.129,0.076c0.035,0.032,0.063,0.072,0.082,0.119c0.019,0.048,0.028,0.101,0.028,0.16c0,0.056,-0.009,0.108,-0.026,0.158c-0.017,0.05,-0.041,0.1,-0.07,0.148c-0.031,0.048,-0.066,0.097,-0.109,0.146c-0.041,0.049,-0.087,0.1,-0.136,0.152L-12.32,5.37l0,0.008l0.673,0L-11.647,5.54z"/>
</g>
</g>
</g>
</g>
</g>
<g id="connector1pin">
<path fill="#787878" d="M9.9,7.766c-0.193,0,-0.35,-0.157,-0.35,-0.35l0,-7.2c0,-0.193,0.156,-0.35,0.35,-0.35s0.35,0.157,0.35,0.35l0,7.2C10.249,7.609,10.093,7.766,9.9,7.766z"/>
</g>
<g id="connector1terminal">
<polygon fill="none" points="9.9,0.216,9.901,0.216,9.901,0.216"/>
</g>
<g transform="matrix(1, 0, 0, 1, 3.429, 1.3462)">
<g>
<g transform="rotate(270)">
<g>
<g enable-background="new    ">
<path fill="#787878" d="M-2.616,5.54l-0.172,0L-2.788,4.648c0,-0.028,0,-0.058,0,-0.09s0.001,-0.063,0.002,-0.095c0.001,-0.032,0.002,-0.063,0.003,-0.092c0.001,-0.028,0.002,-0.054,0.002,-0.076c-0.011,0.012,-0.021,0.021,-0.029,0.03s-0.017,0.017,-0.026,0.024s-0.018,0.016,-0.028,0.025c-0.01,0.008,-0.021,0.019,-0.035,0.03l-0.145,0.118l-0.094,-0.12l0.374,-0.292l0.146,0L-2.618,5.54z"/>
</g>
</g>
</g>
</g>
</g>
<g>
<path d="M0.18,13.536l1.08,-2.521l1.44,1.438L0.18,13.536z"/>
</g>
<g>
<path d="M0.54,16.776l1.08,-2.521l1.438,1.438L0.54,16.776z"/>
</g>
</g>
</g></g></g><g partID='854380180'><g transform='translate(114.831,71.2224)' ><g id="schematic">
<line stroke-linecap="round" y1="7.55002" y2="10.43" x1="14.75" x2="8.98999" stroke="#000000" stroke-width="0.432" class="other"/>
<line stroke-linecap="round" y1="19.0701" y2="21.9501" x1="12.59" x2="14.75" stroke="#000000" stroke-width="0.432" class="other"/>
<line stroke-linecap="round" y1="21.9501" y2="21.9501" x1="14.75" x2="11.15" stroke="#000000" stroke-width="0.432" class="other"/>
<line stroke-linecap="round" y1="21.9501" y2="19.0701" x1="11.15" x2="12.59" stroke="#000000" stroke-width="0.432" class="other"/>
<line stroke-linecap="round" y1="20.5327" y2="18.7866" x1="11.9153" x2="8.42306" stroke="#000000" stroke-width="0.432" class="other"/>
<line stroke-linecap="round" y1="21.5901" y2="21.5901" x1="11.87" x2="14.03" stroke="#000000" stroke-width="0.72" class="other"/>
<line stroke-linecap="round" y1="21.5901" y2="19.7901" x1="14.03" x2="12.59" stroke="#000000" stroke-width="0.72" class="other"/>
<line stroke-linecap="round" y1="19.7901" y2="21.2301" x1="12.59" x2="11.87" stroke="#000000" stroke-width="0.72" class="other"/>
<line stroke-linecap="round" y1="21.2301" y2="21.2301" x1="11.87" x2="12.95" stroke="#000000" stroke-width="0.72" class="other"/>
<line stroke-linecap="round" y1="21.2301" y2="20.5101" x1="12.95" x2="12.59" stroke="#000000" stroke-width="0.72" class="other"/>
<rect stroke-linecap="round" fill="#000000" stroke="none" stroke-width="0" width="2.16" height="14.4001" class="other" x="6.82999" y="7.55002"/>
<line stroke-linecap="round" y1="14.75" y2="14.75" x1="0.349999" x2="7.54999" stroke="#787878" stroke-width="0.699999" connectorname="B" class="pin" id="connector0pin"/>
<g fill="none" stroke="none" stroke-width="0" width="0.000283465" height="0.000283466" class="terminal" x="0.349999" y="14.75" id="connector0terminal"/>
<text text-anchor="middle" fill="#8c8c8c" font-size="2.5" stroke="none" stroke-width="0" font-family="'Droid Sans'" class="text" x="3.94999" y="13.7001">1</text>
<line stroke-linecap="round" y1="29.1502" y2="21.9501" x1="14.75" x2="14.75" stroke="#787878" stroke-width="0.699999" connectorname="E" class="pin" id="connector2pin"/>
<g fill="none" stroke="none" stroke-width="0" width="0.000283465" height="0.000283466" class="terminal" x="14.75" y="29.1502" id="connector2terminal"/>
<g transform="matrix(1, 0, 0, 1, 13.7, 25.5501)">
<g>
<g transform="rotate(270)">
<g>
<text text-anchor="middle" fill="#8c8c8c" font-size="2.5" stroke="none" stroke-width="0" font-family="'Droid Sans'" class="text" x="0" y="0">2</text>
</g>
</g>
</g>
</g>
<line stroke-linecap="round" y1="0.350001" y2="7.55002" x1="14.75" x2="14.75" stroke="#787878" stroke-width="0.699999" connectorname="C" class="pin" id="connector1pin"/>
<g fill="none" stroke="none" stroke-width="0" width="0.000283465" height="0.000283466" class="terminal" x="14.75" y="0.350001" id="connector1terminal"/>
<g transform="matrix(1, 0, 0, 1, 13.7, 3.95001)">
<g>
<g transform="rotate(270)">
<g>
<text text-anchor="middle" fill="#8c8c8c" font-size="2.5" stroke="none" stroke-width="0" font-family="'Droid Sans'" class="text" x="0" y="0">3</text>
</g>
</g>
</g>
</g>
</g>
</g></g><g partID='854380150'><g transform='translate(165.231,71.2224)' ><g id="schematic">
<line stroke-linecap="round" y1="7.55002" y2="10.43" x1="14.75" x2="8.98999" stroke="#000000" stroke-width="0.432" class="other"/>
<line stroke-linecap="round" y1="19.0701" y2="21.9501" x1="12.59" x2="14.75" stroke="#000000" stroke-width="0.432" class="other"/>
<line stroke-linecap="round" y1="21.9501" y2="21.9501" x1="14.75" x2="11.15" stroke="#000000" stroke-width="0.432" class="other"/>
<line stroke-linecap="round" y1="21.9501" y2="19.0701" x1="11.15" x2="12.59" stroke="#000000" stroke-width="0.432" class="other"/>
<line stroke-linecap="round" y1="20.5327" y2="18.7866" x1="11.9153" x2="8.42306" stroke="#000000" stroke-width="0.432" class="other"/>
<line stroke-linecap="round" y1="21.5901" y2="21.5901" x1="11.87" x2="14.03" stroke="#000000" stroke-width="0.72" class="other"/>
<line stroke-linecap="round" y1="21.5901" y2="19.7901" x1="14.03" x2="12.59" stroke="#000000" stroke-width="0.72" class="other"/>
<line stroke-linecap="round" y1="19.7901" y2="21.2301" x1="12.59" x2="11.87" stroke="#000000" stroke-width="0.72" class="other"/>
<line stroke-linecap="round" y1="21.2301" y2="21.2301" x1="11.87" x2="12.95" stroke="#000000" stroke-width="0.72" class="other"/>
<line stroke-linecap="round" y1="21.2301" y2="20.5101" x1="12.95" x2="12.59" stroke="#000000" stroke-width="0.72" class="other"/>
<rect stroke-linecap="round" fill="#000000" stroke="none" stroke-width="0" width="2.16" height="14.4001" class="other" x="6.82999" y="7.55002"/>
<line stroke-linecap="round" y1="14.75" y2="14.75" x1="0.349999" x2="7.54999" stroke="#787878" stroke-width="0.699999" connectorname="B" class="pin" id="connector0pin"/>
<g fill="none" stroke="none" stroke-width="0" width="0.000283465" height="0.000283466" class="terminal" x="0.349999" y="14.75" id="connector0terminal"/>
<text text-anchor="middle" fill="#8c8c8c" font-size="2.5" stroke="none" stroke-width="0" font-family="'Droid Sans'" class="text" x="3.94999" y="13.7001">1</text>
<line stroke-linecap="round" y1="29.1502" y2="21.9501" x1="14.75" x2="14.75" stroke="#787878" stroke-width="0.699999" connectorname="E" class="pin" id="connector2pin"/>
<g fill="none" stroke="none" stroke-width="0" width="0.000283465" height="0.000283466" class="terminal" x="14.75" y="29.1502" id="connector2terminal"/>
<g transform="matrix(1, 0, 0, 1, 13.7, 25.5501)">
<g>
<g transform="rotate(270)">
<g>
<text text-anchor="middle" fill="#8c8c8c" font-size="2.5" stroke="none" stroke-width="0" font-family="'Droid Sans'" class="text" x="0" y="0">2</text>
</g>
</g>
</g>
</g>
<line stroke-linecap="round" y1="0.350001" y2="7.55002" x1="14.75" x2="14.75" stroke="#787878" stroke-width="0.699999" connectorname="C" class="pin" id="connector1pin"/>
<g fill="none" stroke="none" stroke-width="0" width="0.000283465" height="0.000283466" class="terminal" x="14.75" y="0.350001" id="connector1terminal"/>
<g transform="matrix(1, 0, 0, 1, 13.7, 3.95001)">
<g>
<g transform="rotate(270)">
<g>
<text text-anchor="middle" fill="#8c8c8c" font-size="2.5" stroke="none" stroke-width="0" font-family="'Droid Sans'" class="text" x="0" y="0">3</text>
</g>
</g>
</g>
</g>
</g>
</g></g><g partID='854385790'><g transform='translate(132.678,20.8228)' ><g transform='matrix(0,1,-1,0,0,0)'  ><g xmlns="http://www.w3.org/2000/svg" id="schematic">
<line stroke-linecap="round" y1="3.096" y2="0.216" x1="7.55002" x2="8.63003" stroke="#000000" stroke-width="0.432002" class="other" xmlns="http://www.w3.org/2000/svg"/>
<line stroke-linecap="round" y1="0.216" y2="5.976" x1="8.63003" x2="10.43" stroke="#000000" stroke-width="0.432002" class="other" xmlns="http://www.w3.org/2000/svg"/>
<line stroke-linecap="round" y1="5.976" y2="0.216" x1="10.43" x2="12.23" stroke="#000000" stroke-width="0.432002" class="other" xmlns="http://www.w3.org/2000/svg"/>
<line stroke-linecap="round" y1="0.216" y2="5.976" x1="12.23" x2="14.03" stroke="#000000" stroke-width="0.432002" class="other" xmlns="http://www.w3.org/2000/svg"/>
<line stroke-linecap="round" y1="5.976" y2="0.216" x1="14.03" x2="15.8301" stroke="#000000" stroke-width="0.432002" class="other" xmlns="http://www.w3.org/2000/svg"/>
<line stroke-linecap="round" y1="0.216" y2="5.976" x1="15.8301" x2="17.6301" stroke="#000000" stroke-width="0.432002" class="other" xmlns="http://www.w3.org/2000/svg"/>
<line stroke-linecap="round" y1="5.976" y2="0.216" x1="17.6301" x2="19.4301" stroke="#000000" stroke-width="0.432002" class="other" xmlns="http://www.w3.org/2000/svg"/>
<line stroke-linecap="round" y1="0.216" y2="5.976" x1="19.4301" x2="21.2301" stroke="#000000" stroke-width="0.432002" class="other" xmlns="http://www.w3.org/2000/svg"/>
<line stroke-linecap="round" y1="5.976" y2="3.096" x1="21.2301" x2="21.9501" stroke="#000000" stroke-width="0.432002" class="other" xmlns="http://www.w3.org/2000/svg"/>
<line stroke-linecap="round" y1="3.096" y2="3.096" x1="29.1502" x2="21.9501" stroke="#787878" stroke-width="0.700001" connectorname="2" class="pin" xmlns="http://www.w3.org/2000/svg" id="connector1pin"/>
<g fill="none" stroke="none" stroke-width="0" width="0.000283466" height="0.000283465" class="terminal" x="29.1502" y="3.096" xmlns="http://www.w3.org/2000/svg" id="connector1terminal"/>
<text text-anchor="middle" fill="#8c8c8c" font-size="2.50001" stroke="none" stroke-width="0" font-family="'Droid Sans'" class="text" x="25.5501" y="2.046" xmlns="http://www.w3.org/2000/svg">2</text>
<line stroke-linecap="round" y1="3.096" y2="3.096" x1="0.350001" x2="7.55002" stroke="#787878" stroke-width="0.700001" connectorname="1" class="pin" xmlns="http://www.w3.org/2000/svg" id="connector0pin"/>
<g fill="none" stroke="none" stroke-width="0" width="0.000283466" height="0.000283465" class="terminal" x="0.350001" y="3.096" xmlns="http://www.w3.org/2000/svg" id="connector0terminal"/>
<text text-anchor="middle" fill="#8c8c8c" font-size="2.50001" stroke="none" stroke-width="0" font-family="'Droid Sans'" class="text" x="3.95001" y="2.046" xmlns="http://www.w3.org/2000/svg">1</text>
</g>
</g></g></g><g partID='854385770'><g transform='translate(183.078,20.8228)' ><g transform='matrix(0,1,-1,0,0,0)'  ><g xmlns="http://www.w3.org/2000/svg" id="schematic">
<line stroke-linecap="round" y1="3.096" y2="0.216" x1="7.55002" x2="8.63003" stroke="#000000" stroke-width="0.432002" class="other" xmlns="http://www.w3.org/2000/svg"/>
<line stroke-linecap="round" y1="0.216" y2="5.976" x1="8.63003" x2="10.43" stroke="#000000" stroke-width="0.432002" class="other" xmlns="http://www.w3.org/2000/svg"/>
<line stroke-linecap="round" y1="5.976" y2="0.216" x1="10.43" x2="12.23" stroke="#000000" stroke-width="0.432002" class="other" xmlns="http://www.w3.org/2000/svg"/>
<line stroke-linecap="round" y1="0.216" y2="5.976" x1="12.23" x2="14.03" stroke="#000000" stroke-width="0.432002" class="other" xmlns="http://www.w3.org/2000/svg"/>
<line stroke-linecap="round" y1="5.976" y2="0.216" x1="14.03" x2="15.8301" stroke="#000000" stroke-width="0.432002" class="other" xmlns="http://www.w3.org/2000/svg"/>
<line stroke-linecap="round" y1="0.216" y2="5.976" x1="15.8301" x2="17.6301" stroke="#000000" stroke-width="0.432002" class="other" xmlns="http://www.w3.org/2000/svg"/>
<line stroke-linecap="round" y1="5.976" y2="0.216" x1="17.6301" x2="19.4301" stroke="#000000" stroke-width="0.432002" class="other" xmlns="http://www.w3.org/2000/svg"/>
<line stroke-linecap="round" y1="0.216" y2="5.976" x1="19.4301" x2="21.2301" stroke="#000000" stroke-width="0.432002" class="other" xmlns="http://www.w3.org/2000/svg"/>
<line stroke-linecap="round" y1="5.976" y2="3.096" x1="21.2301" x2="21.9501" stroke="#000000" stroke-width="0.432002" class="other" xmlns="http://www.w3.org/2000/svg"/>
<line stroke-linecap="round" y1="3.096" y2="3.096" x1="29.1502" x2="21.9501" stroke="#787878" stroke-width="0.700001" connectorname="2" class="pin" xmlns="http://www.w3.org/2000/svg" id="connector1pin"/>
<g fill="none" stroke="none" stroke-width="0" width="0.000283466" height="0.000283465" class="terminal" x="29.1502" y="3.096" xmlns="http://www.w3.org/2000/svg" id="connector1terminal"/>
<text text-anchor="middle" fill="#8c8c8c" font-size="2.50001" stroke="none" stroke-width="0" font-family="'Droid Sans'" class="text" x="25.5501" y="2.046" xmlns="http://www.w3.org/2000/svg">2</text>
<line stroke-linecap="round" y1="3.096" y2="3.096" x1="0.350001" x2="7.55002" stroke="#787878" stroke-width="0.700001" connectorname="1" class="pin" xmlns="http://www.w3.org/2000/svg" id="connector0pin"/>
<g fill="none" stroke="none" stroke-width="0" width="0.000283466" height="0.000283465" class="terminal" x="0.350001" y="3.096" xmlns="http://www.w3.org/2000/svg" id="connector0terminal"/>
<text text-anchor="middle" fill="#8c8c8c" font-size="2.50001" stroke="none" stroke-width="0" font-family="'Droid Sans'" class="text" x="3.95001" y="2.046" xmlns="http://www.w3.org/2000/svg">1</text>
</g>
</g></g></g><g partID='854385740'><g transform='translate(46.278,35.2228)' ><g transform='matrix(0,1,-1,0,0,0)'  ><g xmlns="http://www.w3.org/2000/svg" id="schematic">
<line stroke-linecap="round" y1="3.096" y2="0.216" x1="7.55002" x2="8.63003" stroke="#000000" stroke-width="0.432002" class="other" xmlns="http://www.w3.org/2000/svg"/>
<line stroke-linecap="round" y1="0.216" y2="5.976" x1="8.63003" x2="10.43" stroke="#000000" stroke-width="0.432002" class="other" xmlns="http://www.w3.org/2000/svg"/>
<line stroke-linecap="round" y1="5.976" y2="0.216" x1="10.43" x2="12.23" stroke="#000000" stroke-width="0.432002" class="other" xmlns="http://www.w3.org/2000/svg"/>
<line stroke-linecap="round" y1="0.216" y2="5.976" x1="12.23" x2="14.03" stroke="#000000" stroke-width="0.432002" class="other" xmlns="http://www.w3.org/2000/svg"/>
<line stroke-linecap="round" y1="5.976" y2="0.216" x1="14.03" x2="15.8301" stroke="#000000" stroke-width="0.432002" class="other" xmlns="http://www.w3.org/2000/svg"/>
<line stroke-linecap="round" y1="0.216" y2="5.976" x1="15.8301" x2="17.6301" stroke="#000000" stroke-width="0.432002" class="other" xmlns="http://www.w3.org/2000/svg"/>
<line stroke-linecap="round" y1="5.976" y2="0.216" x1="17.6301" x2="19.4301" stroke="#000000" stroke-width="0.432002" class="other" xmlns="http://www.w3.org/2000/svg"/>
<line stroke-linecap="round" y1="0.216" y2="5.976" x1="19.4301" x2="21.2301" stroke="#000000" stroke-width="0.432002" class="other" xmlns="http://www.w3.org/2000/svg"/>
<line stroke-linecap="round" y1="5.976" y2="3.096" x1="21.2301" x2="21.9501" stroke="#000000" stroke-width="0.432002" class="other" xmlns="http://www.w3.org/2000/svg"/>
<line stroke-linecap="round" y1="3.096" y2="3.096" x1="29.1502" x2="21.9501" stroke="#787878" stroke-width="0.700001" connectorname="2" class="pin" xmlns="http://www.w3.org/2000/svg" id="connector1pin"/>
<g fill="none" stroke="none" stroke-width="0" width="0.000283466" height="0.000283465" class="terminal" x="29.1502" y="3.096" xmlns="http://www.w3.org/2000/svg" id="connector1terminal"/>
<text text-anchor="middle" fill="#8c8c8c" font-size="2.50001" stroke="none" stroke-width="0" font-family="'Droid Sans'" class="text" x="25.5501" y="2.046" xmlns="http://www.w3.org/2000/svg">2</text>
<line stroke-linecap="round" y1="3.096" y2="3.096" x1="0.350001" x2="7.55002" stroke="#787878" stroke-width="0.700001" connectorname="1" class="pin" xmlns="http://www.w3.org/2000/svg" id="connector0pin"/>
<g fill="none" stroke="none" stroke-width="0" width="0.000283466" height="0.000283465" class="terminal" x="0.350001" y="3.096" xmlns="http://www.w3.org/2000/svg" id="connector0terminal"/>
<text text-anchor="middle" fill="#8c8c8c" font-size="2.50001" stroke="none" stroke-width="0" font-family="'Droid Sans'" class="text" x="3.95001" y="2.046" xmlns="http://www.w3.org/2000/svg">1</text>
</g>
</g></g></g><g partID='854395350'><g id="schematic">
<line stroke-linecap="round" y1="6.78" fill="none" y2="13.98" x1="7.2" stroke="#787878" stroke-width="0.75" x2="7.2" stroke-miterlimit="10" id="connector0pin"/>
<g fill="none" points="6.817,13.567,7.546,13.546,7.546,14.4,6.859,14.359" id="connector0terminal"/>
<path stroke-linecap="round" fill="none" stroke="#000000" stroke-width="0.9" d="M0.45,6.564l13.5,0"/>
<g transform="matrix(1, 0, 0, 1, 1.4985, 4.9878)">
<text font-size="4.4991" font-family="'DroidSans'" id="label">12V</text>
</g>
</g>
</g><g partID='854395460'><g transform='translate(50.3808,164.696)' ><g xmlns="http://www.w3.org/2000/svg" id="schematic">
<path stroke-linecap="round" fill="none" stroke="#787878" stroke-width="0.75" d="M7.201,7.575l0,-7.2" xmlns="http://www.w3.org/2000/svg" id="connector0pin"/>
<g fill="none" width="0.945" height="0.953" x="6.728" y="0" xmlns="http://www.w3.org/2000/svg" id="connector0terminal"/>
<path stroke-linecap="round" fill="none" stroke="#000000" stroke-width="0.9" d="M0.5,7.711L13.9,7.711" xmlns="http://www.w3.org/2000/svg" id="path4098"/>
<path stroke-linecap="round" fill="none" stroke="#000000" stroke-width="0.9" d="M2.732,10.456l8.935,0" xmlns="http://www.w3.org/2000/svg" id="path4100"/>
<path stroke-linecap="round" fill="none" stroke="#000000" stroke-width="0.9" d="M9.431,13.175L4.967,13.175" xmlns="http://www.w3.org/2000/svg" id="path4102"/>
</g>
</g></g><g partID='854385880'><line stroke-linecap='round' stroke='#404040' x1='179.982' y1='49.9728' x2='179.982' y2='49.9728' stroke-width='0.699998' /></g><g partID='854385950'><line stroke-linecap='round' stroke='#404040' x1='43.1816' y1='64.3728' x2='43.1816' y2='64.3728' stroke-width='0.699998' /></g><g partID='854386020'><line stroke-linecap='round' stroke='#404040' x1='129.582' y1='49.9728' x2='129.582' y2='49.9728' stroke-width='0.699998' /></g><g partID='854386090'><line stroke-linecap='round' stroke='#404040' x1='179.982' y1='71.5728' x2='179.982' y2='71.5733' stroke-width='0.699998' /></g><g partID='854386160'><line stroke-linecap='round' stroke='#404040' x1='129.582' y1='71.5728' x2='129.582' y2='71.5733' stroke-width='0.699998' /></g><g partID='854386390'><line stroke-linecap='round' stroke='#404040' x1='107.982' y1='114.773' x2='100.782' y2='114.773' stroke-width='0.699998' /></g><g partID='854386320'><line stroke-linecap='round' stroke='#404040' x1='107.982' y1='85.9728' x2='107.982' y2='114.773' stroke-width='0.699998' /></g><g partID='854386250'><line stroke-linecap='round' stroke='#404040' x1='115.182' y1='85.9728' x2='107.982' y2='85.9728' stroke-width='0.699998' /></g><g partID='854387740'><line stroke-linecap='round' stroke='#404040' x1='43.1816' y1='85.9728' x2='43.1816' y2='85.9733' stroke-width='0.699998' /></g><g partID='854396410'><line stroke-linecap='round' stroke='#404040' x1='165.582' y1='121.973' x2='100.782' y2='121.973' stroke-width='0.699998' /></g><g partID='854396340'><line stroke-linecap='round' stroke='#404040' x1='165.582' y1='85.9728' x2='165.582' y2='121.973' stroke-width='0.699998' /></g><g partID='854396510'><line stroke-linecap='round' stroke='#404040' x1='7.1816' y1='28.3728' x2='7.1816' y2='13.9728' stroke-width='0.699998' /></g><circle  fill="black" cx="7.1816" cy="13.9728" r="1.44" stroke-width="0" stroke="none" /><g partID='854396480'><line stroke-linecap='round' stroke='#404040' x1='14.3816' y1='28.3728' x2='7.1816' y2='28.3728' stroke-width='0.699998' /></g><g partID='854396750'><line stroke-linecap='round' stroke='#404040' x1='129.582' y1='165.173' x2='129.582' y2='100.373' stroke-width='0.699998' /></g><circle  fill="black" cx="129.582" cy="165.173" r="1.44" stroke-width="0" stroke="none" /><g partID='854396680'><line stroke-linecap='round' stroke='#404040' x1='57.5816' y1='165.173' x2='129.582' y2='165.173' stroke-width='0.699998' /></g><circle  fill="black" cx="57.5816" cy="165.173" r="1.44" stroke-width="0" stroke="none" /><g partID='854396930'><line stroke-linecap='round' stroke='#404040' x1='179.982' y1='165.173' x2='179.982' y2='100.373' stroke-width='0.699998' /></g><g partID='854396820'><line stroke-linecap='round' stroke='#404040' x1='129.582' y1='165.173' x2='179.982' y2='165.173' stroke-width='0.699998' /></g><g partID='854397040'><line stroke-linecap='round' stroke='#404040' x1='57.5816' y1='165.173' x2='57.5816' y2='157.973' stroke-width='0.699998' /></g><circle  fill="black" cx="57.5816" cy="165.173" r="1.44" stroke-width="0" stroke="none" /><g partID='854398680'><line stroke-linecap='round' stroke='#404040' x1='35.9816' y1='42.7728' x2='35.9816' y2='35.5728' stroke-width='0.699998' /></g><g partID='854397780'><line stroke-linecap='round' stroke='#404040' x1='7.1816' y1='42.7728' x2='35.9816' y2='42.7728' stroke-width='0.699998' /></g><g partID='854397630'><line stroke-linecap='round' stroke='#404040' x1='7.1816' y1='165.173' x2='7.1816' y2='42.7728' stroke-width='0.699998' /></g><g partID='854397480'><line stroke-linecap='round' stroke='#404040' x1='57.5816' y1='165.173' x2='7.1816' y2='165.173' stroke-width='0.699998' /></g><circle  fill="black" cx="57.5816" cy="165.173" r="1.44" stroke-width="0" stroke="none" /><g partID='854398000'><line stroke-linecap='round' stroke='#404040' x1='129.582' y1='13.9728' x2='129.582' y2='21.1726' stroke-width='0.699998' /></g><circle  fill="black" cx="129.582" cy="13.9728" r="1.44" stroke-width="0" stroke="none" /><g partID='854397930'><line stroke-linecap='round' stroke='#404040' x1='7.1816' y1='13.9728' x2='129.582' y2='13.9728' stroke-width='0.699998' /></g><circle  fill="black" cx="7.1816" cy="13.9728" r="1.44" stroke-width="0" stroke="none" /><g partID='854398160'><line stroke-linecap='round' stroke='#404040' x1='179.982' y1='13.9728' x2='179.982' y2='21.1726' stroke-width='0.699998' /></g><g partID='854398070'><line stroke-linecap='round' stroke='#404040' x1='129.582' y1='13.9728' x2='179.982' y2='13.9728' stroke-width='0.699998' /></g><g partID='854398900'><line stroke-linecap='round' stroke='#404040' x1='43.1816' y1='21.1728' x2='35.9816' y2='21.1728' stroke-width='0.699998' /></g><g partID='854398830'><line stroke-linecap='round' stroke='#404040' x1='43.1816' y1='35.5728' x2='43.1816' y2='21.173' stroke-width='0.699998' /></g><g partID='854370600' id='partLabel'><g transform='translate(49.5816,125.573)' ><g font-size='5' font-style='normal' font-weight='normal' fill='#000000' font-family="'DroidSans'" id='schematicLabel' fill-opacity='1' stroke='none' ><text x='0' y='3.75'>Part1</text></g></g></g><g partID='854373920' id='partLabel'><g transform='translate(31.9312,24.6664)' ><g font-size='5' font-style='normal' font-weight='normal' fill='#000000' font-family="'DroidSans'" id='schematicLabel' fill-opacity='1' stroke='none' ><text x='0' y='3.75'>S1</text></g></g></g><g partID='854380830' id='partLabel'><g transform='translate(187.482,49.7568)' ><g font-size='5' font-style='normal' font-weight='normal' fill='#000000' font-family="'DroidSans'" id='schematicLabel' fill-opacity='1' stroke='none' ><text x='0' y='3.75'>LED2</text><text x='0' y='8.75'>White (6500K)</text></g></g></g><g partID='854379120' id='partLabel'><g transform='translate(49.4824,62.1568)' ><g font-size='5' font-style='normal' font-weight='normal' fill='#000000' font-family="'DroidSans'" id='schematicLabel' fill-opacity='1' stroke='none' ><text x='0' y='3.75'>LED1</text><text x='0' y='8.75'>White (6500K)</text></g></g></g><g partID='854380850' id='partLabel'><g transform='translate(135.482,49.3568)' ><g font-size='5' font-style='normal' font-weight='normal' fill='#000000' font-family="'DroidSans'" id='schematicLabel' fill-opacity='1' stroke='none' ><text x='0' y='3.75'>LED3</text><text x='0' y='8.75'>White (6500K)</text></g></g></g><g partID='854380180' id='partLabel'><g transform='translate(127.931,84.0224)' ><g font-size='5' font-style='normal' font-weight='normal' fill='#000000' font-family="'DroidSans'" id='schematicLabel' fill-opacity='1' stroke='none' ><text x='0' y='3.75'>Q2</text></g></g></g><g partID='854380150' id='partLabel'><g transform='translate(181.131,83.6224)' ><g font-size='5' font-style='normal' font-weight='normal' fill='#000000' font-family="'DroidSans'" id='schematicLabel' fill-opacity='1' stroke='none' ><text x='0' y='3.75'>Q1</text></g></g></g><g partID='854385770' id='partLabel'><g transform='translate(186.174,29.9728)' ><g font-size='5' font-style='normal' font-weight='normal' fill='#000000' font-family="'DroidSans'" id='schematicLabel' fill-opacity='1' stroke='none' ><text x='0' y='3.75'>R2</text><text x='0' y='8.75'>220&#x3a9;</text><text x='0' y='13.75'>&#xb1;5%</text></g></g></g><g partID='854385790' id='partLabel'><g transform='translate(134.07,27.2224)' ><g font-size='5' font-style='normal' font-weight='normal' fill='#000000' font-family="'DroidSans'" id='schematicLabel' fill-opacity='1' stroke='none' ><text x='0' y='3.75'>R3</text><text x='0' y='8.75'>220&#x3a9;</text><text x='0' y='13.75'>&#xb1;5%</text></g></g></g><g partID='854385740' id='partLabel'><g transform='translate(49.4776,43.1224)' ><g font-size='5' font-style='normal' font-weight='normal' fill='#000000' font-family="'DroidSans'" id='schematicLabel' fill-opacity='1' stroke='none' ><text x='0' y='3.75'>R1</text><text x='0' y='8.75'>220&#x3a9;</text><text x='0' y='13.75'>&#xb1;5%</text></g></g></g></svg>